<?xml version="1.0" standalone="no"?>
<!DOCTYPE svg PUBLIC "-//W3C//DTD SVG 20010904//EN"
 "http://www.w3.org/TR/2001/REC-SVG-20010904/DTD/svg10.dtd">
<svg version="1.0" xmlns="http://www.w3.org/2000/svg"
 width="512.000000pt" height="512.000000pt" viewBox="0 0 512.000000 512.000000"
 preserveAspectRatio="xMidYMid meet">
<metadata>
Created by potrace 1.14, written by Peter Selinger 2001-2017
</metadata>
<g transform="translate(0.000000,512.000000) scale(0.100000,-0.100000)"
fill="#000000" stroke="none">
<path d="M2319 4955 c-4 -3 -40 -10 -80 -15 -115 -15 -193 -31 -289 -59 -19
-5 -46 -13 -60 -16 -14 -4 -34 -10 -45 -15 -11 -4 -36 -13 -55 -20 -19 -7 -45
-16 -57 -21 -13 -5 -33 -13 -45 -18 -85 -32 -292 -143 -388 -207 -153 -101
-232 -166 -375 -309 -190 -189 -304 -344 -435 -590 -100 -188 -212 -518 -235
-690 -2 -22 -9 -65 -15 -95 -6 -30 -13 -141 -17 -247 -7 -218 6 -383 44 -563
13 -63 26 -126 29 -140 29 -140 170 -471 271 -638 110 -182 294 -409 425 -523
40 -35 75 -66 78 -69 14 -15 182 -141 230 -172 130 -83 316 -180 420 -217 19
-7 44 -17 55 -22 47 -19 139 -48 230 -70 146 -36 213 -46 408 -60 201 -15 466
2 637 40 133 30 252 64 315 90 11 5 36 15 55 22 104 37 291 135 420 218 281
181 551 462 732 761 103 172 243 499 272 640 3 14 17 79 30 145 38 178 50 339
43 559 -4 105 -11 216 -17 246 -6 30 -13 73 -15 95 -23 172 -135 502 -235 690
-130 243 -242 397 -429 585 -199 199 -391 339 -620 451 -140 68 -167 80 -251
109 -19 7 -44 16 -55 20 -11 5 -31 11 -45 15 -14 3 -41 11 -60 16 -84 24 -144
37 -280 60 -70 12 -582 24 -591 14z m551 -197 c47 -6 110 -17 140 -25 30 -8
71 -19 90 -23 92 -22 157 -43 275 -90 62 -24 248 -119 317 -161 243 -149 492
-385 638 -604 18 -27 41 -59 51 -70 50 -58 172 -310 227 -470 67 -194 101
-356 123 -582 20 -209 -10 -534 -71 -748 -6 -22 -15 -53 -19 -70 -9 -33 -18
-59 -31 -90 -4 -11 -18 -47 -30 -80 -30 -79 -117 -260 -150 -310 -14 -22 -32
-52 -39 -67 -30 -59 -179 -248 -270 -342 -232 -239 -484 -407 -791 -528 -14
-6 -33 -14 -42 -19 -10 -5 -25 -9 -33 -9 -8 0 -23 -4 -33 -9 -19 -10 -68 -23
-222 -61 -117 -29 -180 -34 -415 -34 -237 0 -309 5 -445 35 -95 21 -245 63
-290 82 -14 5 -34 13 -45 18 -90 35 -122 50 -211 95 -253 128 -466 296 -649
509 -87 101 -210 272 -249 345 -92 173 -156 317 -156 352 0 9 -4 19 -9 22 -5
3 -11 16 -14 28 -3 13 -10 39 -16 58 -25 87 -33 118 -42 160 -47 217 -67 475
-50 657 46 494 200 885 494 1253 107 133 232 251 422 397 69 53 204 132 314
184 58 28 114 54 123 60 10 5 22 9 28 9 6 0 29 8 53 19 76 34 134 51 307 90
57 13 190 31 255 35 93 5 380 -4 465 -16z"/>
<path d="M2405 4599 c-267 -32 -394 -64 -630 -159 -59 -24 -168 -80 -218 -113
-14 -9 -42 -26 -62 -37 -20 -11 -42 -25 -48 -30 -7 -5 -48 -37 -92 -72 -44
-34 -130 -111 -190 -172 -305 -306 -490 -667 -571 -1111 -29 -157 -27 -538 4
-700 44 -234 165 -541 288 -735 201 -316 500 -589 809 -739 258 -125 463 -179
787 -206 92 -8 138 4 165 43 17 25 18 67 21 712 3 668 -3 868 -30 975 -24 96
-32 123 -51 175 -118 318 -331 549 -658 712 -145 72 -408 114 -588 94 -93 -11
-106 -14 -127 -39 -21 -24 -24 -38 -24 -105 0 -121 25 -254 71 -396 54 -161
156 -332 268 -450 59 -61 222 -192 276 -222 11 -6 36 -20 55 -31 129 -72 305
-119 492 -129 l118 -7 0 -569 0 -569 -72 6 c-318 28 -647 157 -913 359 -99 75
-276 246 -318 306 -17 25 -34 47 -37 50 -16 11 -130 191 -167 260 -97 186
-156 375 -192 618 -14 94 -14 418 0 496 30 173 38 207 59 276 4 14 13 45 21
70 7 25 16 49 21 55 4 5 8 15 8 22 0 38 103 238 193 373 142 215 305 375 537
529 189 126 388 206 625 252 68 13 274 30 360 30 375 -1 800 -156 1101 -402
110 -89 230 -211 291 -294 12 -17 37 -51 57 -78 20 -26 36 -50 36 -53 0 -3 9
-18 20 -34 44 -62 160 -287 160 -310 0 -6 4 -18 9 -28 5 -9 15 -37 21 -62 7
-25 16 -56 20 -70 21 -69 29 -103 59 -276 14 -80 14 -421 0 -498 -13 -71 -37
-186 -48 -236 -11 -45 -58 -185 -78 -230 -116 -262 -225 -424 -407 -606 -98
-98 -250 -219 -331 -265 -112 -63 -210 -111 -305 -149 -58 -24 -115 -54 -127
-67 -34 -36 -30 -78 12 -120 41 -41 52 -40 163 3 417 162 741 419 979 779 184
279 291 573 334 918 16 137 6 450 -20 587 -60 316 -174 583 -371 865 -81 115
-252 290 -390 397 -41 32 -80 63 -87 68 -6 5 -29 19 -50 31 -21 12 -42 25 -48
29 -5 4 -28 18 -50 30 -195 111 -415 192 -595 221 -218 34 -410 44 -545 28z"/>
<path d="M3535 3483 c-74 -6 -214 -47 -290 -86 -188 -94 -367 -289 -442 -482
-35 -91 -48 -140 -63 -242 -20 -138 -8 -188 52 -219 50 -26 238 -23 353 6 99
24 227 80 300 130 242 166 405 472 405 757 0 66 -2 74 -29 101 -39 39 -124 49
-286 35z"/>
</g>
</svg>
