<svg id="Layer_1" enable-background="new 0 0 512 512" height="512" viewBox="0 0 512 512" width="512" xmlns="http://www.w3.org/2000/svg"><g><g><g><path d="m368 384h-240c-8.837 0-16-7.163-16-16v-272h160 80c8.837 0 16 7.163 16 16z" fill="#463c4b"/></g><g><path d="m160 352h-32c-8.837 0-16 7.163-16 16v-48h48c8.837 0 16 7.163 16 16 0 8.837-7.163 16-16 16z" fill="#32283c"/></g><g><path d="m160 320h-112v-288h112c8.837 0 16 7.163 16 16v288c0-8.837-7.163-16-16-16z" fill="#463c4b"/></g></g><g><path d="m176 240h64v72h-64z" fill="#e6e6eb"/></g><g><path d="m176 96h64v72h-64z" fill="#e6e6eb"/></g><g><path d="m176 96h16v72h-16z" fill="#a5c3dc"/></g><g><path d="m176 168h16v72h-16z" fill="#32283c"/></g><g><path d="m176 240h16v72h-16z" fill="#a5c3dc"/></g><g><path d="m176 312h16v72h-16z" fill="#32283c"/></g><g><path d="m368 168h-64v-72h48c8.837 0 16 7.163 16 16z" fill="#e6e6eb"/></g><g><path d="m240 168h64v72h-64z" fill="#e6e6eb"/></g><g><g><path d="m368 488h-32c-70.692 0-128-57.307-128-128 0-70.692 57.307-128 128-128h32c70.692 0 128 57.307 128 128 0 70.693-57.307 128-128 128z" fill="#cd3232"/></g><g><circle cx="336" cy="360" fill="#ff4646" r="128"/></g><g><circle cx="336" cy="360" fill="#e6e6eb" r="96"/></g><g><path d="m336 368c-4.418 0-8-3.582-8-8v-72c0-4.418 3.582-8 8-8s8 3.582 8 8v72c0 4.418-3.582 8-8 8z" fill="#ff4646"/></g><g><circle cx="336" cy="360" fill="#463c4b" r="24"/></g><g><circle cx="336" cy="360" fill="#ff4646" r="10.667"/></g><g><path d="m408 368h-8c-4.418 0-8-3.582-8-8 0-4.418 3.582-8 8-8h8c4.418 0 8 3.582 8 8 0 4.418-3.582 8-8 8z" fill="#463c4b"/></g><g><path d="m328 432v-8c0-4.418 3.582-8 8-8 4.418 0 8 3.582 8 8v8c0 4.418-3.582 8-8 8-4.418 0-8-3.582-8-8z" fill="#463c4b"/></g><g><path d="m264 352h8c4.418 0 8 3.582 8 8 0 4.418-3.582 8-8 8h-8c-4.418 0-8-3.582-8-8 0-4.418 3.582-8 8-8z" fill="#463c4b"/></g></g><g><path d="m24 488h16c4.418 0 8-3.582 8-8v-448c0-4.418-3.582-8-8-8h-16c-4.418 0-8 3.582-8 8v448c0 4.418 3.582 8 8 8z" fill="#ff4646"/></g><g><path d="m48 104h64v72h-64z" fill="#e6e6eb"/></g><g><path d="m160 104h-48v-72h48c8.837 0 16 7.163 16 16v72c0-8.837-7.163-16-16-16z" fill="#e6e6eb"/></g><g><path d="m160 248h-48v-72h48c8.837 0 16 7.163 16 16v72c0-8.837-7.163-16-16-16z" fill="#e6e6eb"/></g><g><path d="m48 248h64v72h-64z" fill="#e6e6eb"/></g><g><path d="m160 352h-32c-8.837 0-16 7.163-16 16 0 8.837 7.163 16 16 16h48v-48c0 8.837-7.163 16-16 16z" fill="#a5c3dc"/></g><g><path d="m32 488h8c4.418 0 8-3.582 8-8v-448h-8c-4.418 0-8 3.582-8 8z" fill="#cd3232"/></g></g></svg>