<?xml version="1.0" encoding="iso-8859-1"?>
<!-- Generator: Adobe Illustrator 19.0.0, SVG Export Plug-In . SVG Version: 6.00 Build 0)  -->
<svg version="1.1" id="Capa_1" xmlns="http://www.w3.org/2000/svg" xmlns:xlink="http://www.w3.org/1999/xlink" x="0px" y="0px"
	 viewBox="0 0 512 512" style="enable-background:new 0 0 512 512;" xml:space="preserve">
<path style="fill:#17ACE8;" d="M502.027,482.826c-6.298-3.599-44.993-27.595-65.39-70.488
	c47.994-44.993,75.289-107.484,75.289-171.374C511.925,108.685,396.643,0,255.964,0S0.002,108.685,0.002,240.964
	s115.283,240.964,255.961,240.964c18.897,0,38.095-1.8,65.99-7.499c73.489,38.994,140.478,37.794,165.675,37.494
	c11.098-0.3,19.197,1.8,23.395-9.599C514.025,494.525,509.826,485.527,502.027,482.826z"/>
<path style="fill:#1689FC;" d="M511.024,502.324c-4.198,11.398-12.297,9.299-23.395,9.599c-25.197,0.3-92.185,1.5-165.675-37.494
	c-27.896,5.699-47.093,7.499-65.99,7.499V0c140.679,0,255.962,108.685,255.962,240.964c0,63.89-27.295,126.381-75.289,171.374
	c20.397,42.894,59.092,66.889,65.39,70.488C509.826,485.527,514.025,494.525,511.024,502.324z"/>
<g>
	<path style="fill:#CAE8F9;" d="M285.959,240.964v120.982c0,16.498-13.498,29.996-29.995,29.996s-29.995-13.498-29.995-29.996
		V240.964c0-16.498,13.498-29.995,29.995-29.995S285.959,224.466,285.959,240.964z"/>
	<path style="fill:#CAE8F9;" d="M285.959,135.98c0,16.498-13.498,29.995-29.995,29.995s-29.995-13.498-29.995-29.995
		s13.498-29.995,29.995-29.995S285.959,119.482,285.959,135.98z"/>
</g>
<g>
	<path style="fill:#B7E0F6;" d="M255.964,165.975v-59.991c16.498,0,29.995,13.498,29.995,29.995S272.461,165.975,255.964,165.975z"
		/>
	<path style="fill:#B7E0F6;" d="M285.959,240.964v120.982c0,16.498-13.498,29.996-29.995,29.996V210.968
		C272.461,210.968,285.959,224.466,285.959,240.964z"/>
</g>
<g>
</g>
<g>
</g>
<g>
</g>
<g>
</g>
<g>
</g>
<g>
</g>
<g>
</g>
<g>
</g>
<g>
</g>
<g>
</g>
<g>
</g>
<g>
</g>
<g>
</g>
<g>
</g>
<g>
</g>
</svg>
