<svg id="Capa_1" enable-background="new 0 0 510 510" height="512" viewBox="0 0 510 510" width="512" xmlns="http://www.w3.org/2000/svg"><g id="XMLID_714_"><path id="XMLID_853_" d="m385.969 0c-10 0-138.201 0-148.203 0l-8.663 60 8.663 60h148.203c-10.87-16.304-33.645-50.467-40-60 10.869-16.304 33.645-50.467 40-60z" fill="#e63950"/><path id="XMLID_992_" d="m222.941 0c-5.246 0-9.753 0-14.999 0v146.054l7.5 8.779 7.499-8.779 7.5-73.027z" fill="#bb5d4c"/><path id="XMLID_988_" d="m237.941 146.054c0-61.156 0-80.466 0-146.054-5.246 0-9.753 0-15 0v146.054l7.5 8.779z" fill="#a44f3e"/><path id="XMLID_861_" d="m207.942 146.054c-5.803 10.267-199.906 353.679-205.709 363.946h115.708c5.302-3.498 9.857-6.502 15.159-10 5.191 3.498 9.651 6.502 14.842 10h74.999c.282-4.647 9.718-160.025 10-164.667-.555-11.064-9.444-188.215-10-199.279-5.246 0-9.753 0-14.999 0z" fill="#575f64"/><g fill="#474f54"><path id="XMLID_864_" d="m361.507 287.711c-8.177 12.429-15.221 23.133-23.398 35.562-5.566-9.848-94.601-167.37-100.167-177.218-5.246 0-9.753 0-15 0v363.946h284.825c-4.123-6.268-142.137-216.023-146.26-222.29z"/><path id="XMLID_986_" d="m192.942 420c-41.354 0-75 33.644-75 75v15h30c0-5.246 0-9.754 0-15 0-24.812 20.186-45 45-45h29.999l10-15-10-15c-10.492 0-19.507 0-29.999 0z"/><path id="XMLID_990_" d="m207.942 300v45c0 12.869 5.474 24.967 14.999 33.505l9.695-39.253-9.695-39.252c-5.246 0-9.753 0-14.999 0z"/></g><path id="XMLID_989_" d="m252.941 360c-8.271 0-15-6.728-15-15 0-14.981 0-30.019 0-45-5.246 0-9.753 0-15 0v78.505c8.235 7.381 18.834 11.495 30 11.495 8.271 0 15 6.728 15 15s-6.728 15-15 15c-10.492 0-19.507 0-30 0v30h30c24.813 0 45-20.185 45-45 0-24.812-20.185-45-45-45z" fill="#32393f"/></g></svg>