<svg id="Capa_1" enable-background="new 0 0 512 512" height="512" viewBox="0 0 512 512" width="512" xmlns="http://www.w3.org/2000/svg"><g><g><path d="m256 420c-62.52 0-119.355-35.361-147.275-90.835-61.114-6.108-108.725-56.748-108.725-119.165s47.611-113.057 108.725-119.165c27.92-55.474 84.755-90.835 147.275-90.835s119.355 35.361 147.275 90.835c61.114 6.108 108.725 56.748 108.725 119.165s-47.611 113.057-108.725 119.165c-27.92 55.474-84.755 90.835-147.275 90.835z" fill="#a0e65c"/></g><path d="m403.275 329.165c61.114-6.108 108.725-56.748 108.725-119.165s-47.611-113.057-108.725-119.165c-27.92-55.474-84.755-90.835-147.275-90.835v420c62.52 0 119.355-35.361 147.275-90.835z" fill="#7acc52"/><g id="Question_62_"><g><path d="m301 165c0 15.901-8.699 30.901-22.5 39-4.501 2.701-7.5 7.5-7.5 12.9v23.1h-30v-23.101c0-12.599 5.7-24.899 15-33.3 6.064-6.064 15-7.837 15-18.6 0-8.401-6.599-15-15-15s-15 6.599-15 15h-30c0-24.901 20.099-45 45-45s45 20.1 45 45.001z" fill="#515f66"/></g><g><path d="m241 270h30v30h-30z" fill="#515f66"/></g><g><path d="m106 512c-24.814 0-45-20.186-45-45s20.186-45 45-45 45 20.186 45 45-20.186 45-45 45z" fill="#a0e65c"/></g></g><g fill="#3e454d"><path d="m256 270h15v30h-15z"/><path d="m301 165c0 15.901-8.699 30.901-22.5 39-4.501 2.701-7.5 7.5-7.5 12.9v23.1h-15v-56.4c6.064-6.064 15-7.837 15-18.6 0-8.401-6.599-15-15-15v-30c24.901 0 45 20.099 45 45z"/></g></g></svg>