<?xml version="1.0" standalone="no"?>
<!DOCTYPE svg PUBLIC "-//W3C//DTD SVG 20010904//EN"
 "http://www.w3.org/TR/2001/REC-SVG-20010904/DTD/svg10.dtd">
<svg version="1.0" xmlns="http://www.w3.org/2000/svg"
 width="512.000000pt" height="512.000000pt" viewBox="0 0 512.000000 512.000000"
 preserveAspectRatio="xMidYMid meet">
<metadata>
Created by potrace 1.14, written by Peter Selinger 2001-2017
</metadata>
<g transform="translate(0.000000,512.000000) scale(0.100000,-0.100000)"
fill="#000000" stroke="none">
<path d="M2369 5116 c-2 -2 -38 -7 -78 -10 -41 -4 -77 -9 -80 -11 -4 -2 -31
-6 -61 -10 -30 -3 -75 -11 -100 -17 -25 -5 -56 -12 -70 -14 -52 -10 -236 -66
-326 -100 -412 -154 -826 -454 -1084 -784 -19 -25 -37 -47 -40 -50 -3 -3 -16
-21 -30 -40 -207 -292 -333 -552 -409 -842 -69 -264 -86 -396 -85 -688 0 -183
3 -241 19 -345 3 -16 7 -43 9 -60 36 -258 152 -590 290 -835 50 -87 172 -269
221 -329 167 -202 306 -337 489 -475 321 -240 732 -415 1112 -471 22 -4 50 -8
64 -11 73 -14 188 -19 390 -18 183 0 249 5 355 22 365 62 646 168 970 365 392
239 762 659 961 1094 113 245 195 543 221 803 12 118 9 506 -5 600 -87 585
-331 1081 -732 1480 -411 411 -923 659 -1510 734 -93 12 -481 21 -491 12z"/>
</g>
</svg>
